<svg id="レイヤ_1" data-name="レイヤ− 1" xmlns="http://www.w3.org/2000/svg" viewBox="0 0 600 43.6089"><defs><style>.cls-1{fill:#333;}</style></defs><title>logo-01</title><path class="cls-1" d="M25.4362,14.6959c-.4542-2.5608-1.3606-5.282-7.1161-5.282s-6.512,2.1768-6.512,3.92c0,6.3639,25.2064,1.7446,25.2064,16.5755,0,11.7362-11.3478,13.86-17.638,13.86C10.2247,43.7685.3042,40.5888,0,29.831H10.9007c0,3.4147,2.1207,5.9123,8.7773,5.9123,5.4495,0,6.7408-2.65,6.7408-4.1634,0-6.7364-24.9768-1.6709-24.9768-16.7227,0-5.9132,3.704-13.4773,16.27-13.4773,7.877,0,17.2593,1.977,18.093,13.316Z" transform="translate(0 -0.1955)"/><path class="cls-1" d="M56.1088,13.24h6.5821v7.5667H56.1088V31.8807c0,2.3486.071,3.2578,4.3851,3.2578.6821,0,1.4413-.078,2.197-.1525v8.0216c-1.6587.0789-3.3306.15-5.0006.15h-1.36c-9.1543,0-10.8252-3.4725-10.8252-8.6993V20.8064H40.0671V13.24h5.4382V2.3416H56.1088Z" transform="translate(0 -0.1955)"/><path class="cls-1" d="M92.1931,28.2468c0,4.92-4.7718,7.9542-9.4621,7.9542a4.62,4.62,0,0,1-4.9182-4.8455c0-4.39,3.2543-5.3785,7.1924-6.0579,4.3772-.68,6.1236-1.3589,7.1879-2.1978Zm10.3651-15.206c0-9.9241-10.3651-11.6608-16.0468-11.6608-8.2479,0-16.8052,1.7367-18.015,14.0822H78.7184c.3007-2.35,1.21-5.6029,6.5164-5.6029,2.7195,0,6.9583.2253,6.9583,4.6947,0,2.268-2.0427,2.9448-3.7092,3.17l-9.5427,1.4483c-6.7347.9722-11.7248,4.9927-11.7248,12.8618,0,8.3277,6.2008,11.7344,12.2543,11.7344,7.1923,0,10.6-3.3341,13.0205-5.8238a18.1256,18.1256,0,0,0,.9827,4.7587h11.4346V41.1148c-1.29-.4532-2.35-1.5157-2.35-6.2753Z" transform="translate(0 -0.1955)"/><path class="cls-1" d="M108.6318,2.4416h10.1432V9.4138h.15c2.1961-4.1011,4.6175-8.0339,11.0541-8.0339a19.153,19.153,0,0,1,2.0436.1508v10.75a20.5925,20.5925,0,0,0-3.0272-.1455c-8.2523,0-9.7637,5.1417-9.7637,9.6058V42.7034h-10.6Z" transform="translate(0 -0.1955)"/><path class="cls-1" d="M148.9524,42.7034H138.3567V24.11H132.53v-7.558h5.8264V13.2827c0-8.3215,4.5456-11.4968,11.809-11.4968,3.0973,0,4.5386.0745,5.4495.149V10.49h-2.957c-3.63,0-3.7057,1.1353-3.7057,4.4719v1.5894h6.8916V24.11h-6.8916Z" transform="translate(0 -0.1955)"/><path class="cls-1" d="M171.7778,16.5518V42.7034H161.1856V16.5518Zm0-4.7753H161.1856V1.9349h10.5922Z" transform="translate(0 -0.1955)"/><path class="cls-1" d="M203.5979,14.6959c-.4568-2.5608-1.3607-5.282-7.1178-5.282-5.7493,0-6.5033,2.1768-6.5033,3.92,0,6.3639,25.2082,1.7446,25.2082,16.5755,0,11.7362-11.3513,13.86-17.64,13.86-9.16,0-19.0741-3.18-19.3774-13.9376h10.8946c0,3.4147,2.1242,5.9123,8.7817,5.9123,5.45,0,6.7478-2.65,6.7478-4.1634,0-6.7364-24.9829-1.6709-24.9829-16.7227,0-5.9132,3.7119-13.4773,16.2643-13.4773,7.8735,0,17.2715,1.977,18.0947,13.316Z" transform="translate(0 -0.1955)"/><path class="cls-1" d="M254.8691,42.7034H244.2743V30.8269c0-2.9544-.1508-7.9533-6.882-7.9533-4.7043,0-6.11,3.1841-6.11,9.32v10.51H220.6906V.9284h10.5913v19.3h.1542c1.3721-3.3323,3.6786-6.285,9.4358-6.285,7.8673,0,13.9972,4.621,13.9972,13.4773Z" transform="translate(0 -0.1955)"/><path class="cls-1" d="M267.6126,6.0834h12.57c2.4942,0,6.6917.5111,6.6917,6.9153,0,6.1167-3.8881,7.1573-7.5728,7.1573H267.6126Zm0,19.0872,4.1476.0123,13.8945,17.5206h5.6766l-14.063-17.5329h3.5962c7.41,0,11.2058-5.7432,11.2058-12.75,0-8.7712-6.1245-11.1243-12.2525-11.1243h-17.23V42.7034h5.0252Z" transform="translate(0 -0.1955)"/><path class="cls-1" d="M417.6546,6.0834h12.5647c2.49,0,6.69.5111,6.69,6.9153,0,6.1167-3.8837,7.1573-7.5755,7.1573H417.6546Zm0,19.0872,4.1459.0123,13.8867,17.5206h5.6757L427.3043,25.1705h3.5945c7.4079,0,11.2093-5.7432,11.2093-12.75,0-8.7712-6.1255-11.1243-12.2569-11.1243H412.6278V42.7034h5.0269Z" transform="translate(0 -0.1955)"/><path class="cls-1" d="M326.2339,42.7034H298.7174V1.2958H325.871V6.2552H303.76V18.9443h20.4049v4.9595H303.76V37.7483h22.4738Z" transform="translate(0 -0.1955)"/><path class="cls-1" d="M359.2219,13.7569c-1.4027-7.2721-6.8531-8.6046-10.4361-8.6046-6.7531,0-12.2035,5.54-12.2035,16.4413,0,9.7558,3.12,17.2453,12.3621,17.2453,3.2719,0,8.9221-1.7271,10.6413-11.3627h4.8849c-2.0866,15.6348-13.5036,16.3282-16.3038,16.3282-8.4644,0-16.7666-6.121-16.7666-22.032,0-12.747,6.5418-21.5769,17.3855-21.5769,9.612,0,14.5845,6.6268,15.3174,13.5614Z" transform="translate(0 -0.1955)"/><path class="cls-1" d="M401.5219,21.9961c0,9.7549-4.8752,16.8429-12.9705,16.8429S375.572,31.751,375.572,21.9961c0-9.7444,4.8831-16.8438,12.9793-16.8438S401.5219,12.2517,401.5219,21.9961Zm5.1935,0c0-8.94-4.2537-21.8006-18.164-21.8006-13.92,0-18.1745,12.861-18.1745,21.8006,0,8.9483,4.2545,21.8084,18.1745,21.8084C402.4617,43.8045,406.7154,30.9444,406.7154,21.9961Z" transform="translate(0 -0.1955)"/><path class="cls-1" d="M452.3057,6.0834h9.3971c6.8539,0,11.1629,5.25,11.1629,15.6891s-4.2589,16.1477-10.8,16.1477h-9.76Zm-5.0392,36.62h14.8958c12.2551,0,15.89-11.9957,15.89-21.2781,0-11.9422-5.9684-20.13-15.6795-20.13H447.2665Z" transform="translate(0 -0.1955)"/><path class="cls-1" d="M488.4786,42.7034h-5.0365V1.2958h5.0365Z" transform="translate(0 -0.1955)"/><path class="cls-1" d="M519.6009,1.2958H524.48V42.7034h-5.65l-18.947-33.457h-.1078v33.457h-4.8761V1.2958h5.9631L519.5,34.7448h.1008Z" transform="translate(0 -0.1955)"/><path class="cls-1" d="M548.094,20.5618H564.45V42.7034h-3.2754l-1.1958-5.3557a14.6879,14.6879,0,0,1-12.29,6.4568c-6.3928,0-9.5085-2.5968-11.4267-4.6745-5.71-5.9982-5.8738-13.0941-5.8738-17.4785,0-10.0924,5.5012-21.456,17.6591-21.456,6.9548,0,14.6942,4.3843,15.7768,13.6692h-4.877c-1.61-7.2081-7.0608-8.7124-11.1585-8.7124-6.7005,0-12.2061,5.9439-12.2061,16.79,0,8.4179,2.495,17.08,12.41,17.08a11.0246,11.0246,0,0,0,7.6307-2.6617c3.2727-2.8834,4.0967-6.576,4.0967-11.0085H548.094Z" transform="translate(0 -0.1955)"/><path class="cls-1" d="M594.2331,13.4081c-.2559-6.4051-5.026-8.4189-9.2332-8.4189-3.1718,0-8.5161.9731-8.5161,7.2625,0,3.519,2.2407,4.6745,4.4132,5.2469l10.6359,2.7151c4.8288,1.2633,8.4671,4.5,8.4671,11.069,0,9.8092-8.1987,12.5217-14.5889,12.5217-6.9066,0-9.6014-2.3021-11.2654-3.981-3.1667-3.1718-3.7908-6.6374-3.7908-10.4931h4.7341c0,7.49,5.496,9.6918,10.27,9.6918,3.6338,0,9.754-1.0441,9.754-6.9881,0-4.3168-1.8164-5.71-7.9383-7.32l-7.6264-1.9664c-2.4415-.6234-7.9462-2.5337-7.9462-9.7488,0-6.4568,3.7951-12.8031,12.8241-12.8031,13.0328,0,14.3312,8.652,14.5363,13.2125Z" transform="translate(0 -0.1955)"/></svg>